<mxfile host="app.diagrams.net" modified="2024-04-17T06:47:26.190Z" agent="Mozilla/5.0 (Macintosh; Intel Mac OS X 10_15_7) AppleWebKit/537.36 (KHTML, like Gecko) Chrome/123.0.0.0 Safari/537.36" etag="WcyrzFHgt_g9jntVyRf1" version="24.2.5" type="github">
  <diagram name="第 1 页" id="Cd9KeFTfhNiQLP005J_V">
    <mxGraphModel dx="1242" dy="234" grid="1" gridSize="10" guides="1" tooltips="1" connect="1" arrows="1" fold="1" page="1" pageScale="1" pageWidth="1200" pageHeight="500" math="0" shadow="0">
      <root>
        <mxCell id="0" />
        <mxCell id="1" parent="0" />
        <mxCell id="u-G2C7BFLlz_er3tTFiu-1" value="&lt;span style=&quot;color: rgb(163, 21, 21); font-family: Menlo, Monaco, &amp;quot;Courier New&amp;quot;, monospace; white-space: pre; background-color: rgb(255, 255, 255);&quot;&gt;轻度疾病\n&lt;/span&gt;&lt;span style=&quot;color: rgb(163, 21, 21); font-family: Menlo, Monaco, &amp;quot;Courier New&amp;quot;, monospace; text-align: left; white-space: pre; background-color: rgb(255, 255, 255);&quot;&gt;指被保险人发生符合以下疾病定义所述条件的60种疾病... &lt;/span&gt;&lt;span style=&quot;color: rgb(4, 81, 165); font-family: Menlo, Monaco, &amp;quot;Courier New&amp;quot;, monospace; text-align: left; white-space: pre; background-color: rgb(255, 255, 255);&quot;&gt;保障范围:轻度疾病, 理赔条件:专科医生确诊&lt;/span&gt;" style="text;html=1;align=center;verticalAlign=middle;whiteSpace=wrap;rounded=0;" parent="1" vertex="1">
          <mxGeometry x="360" y="520" width="650" height="30" as="geometry" />
        </mxCell>
        <mxCell id="u-G2C7BFLlz_er3tTFiu-4" value="BERT" style="rounded=1;whiteSpace=wrap;html=1;" parent="1" vertex="1">
          <mxGeometry x="360" y="550" width="640" height="30" as="geometry" />
        </mxCell>
        <mxCell id="u-G2C7BFLlz_er3tTFiu-40" style="edgeStyle=orthogonalEdgeStyle;rounded=0;orthogonalLoop=1;jettySize=auto;html=1;exitX=0.5;exitY=1;exitDx=0;exitDy=0;entryX=0.5;entryY=0;entryDx=0;entryDy=0;" parent="1" source="u-G2C7BFLlz_er3tTFiu-5" target="u-G2C7BFLlz_er3tTFiu-35" edge="1">
          <mxGeometry relative="1" as="geometry" />
        </mxCell>
        <mxCell id="u-G2C7BFLlz_er3tTFiu-5" value="CLS" style="rounded=0;whiteSpace=wrap;html=1;fillColor=#d5e8d4;strokeColor=#82b366;" parent="1" vertex="1">
          <mxGeometry x="360" y="600" width="30" height="60" as="geometry" />
        </mxCell>
        <mxCell id="u-G2C7BFLlz_er3tTFiu-6" value="" style="rounded=0;whiteSpace=wrap;html=1;" parent="1" vertex="1">
          <mxGeometry x="390" y="600" width="30" height="60" as="geometry" />
        </mxCell>
        <mxCell id="u-G2C7BFLlz_er3tTFiu-7" value="" style="rounded=0;whiteSpace=wrap;html=1;" parent="1" vertex="1">
          <mxGeometry x="420" y="600" width="30" height="60" as="geometry" />
        </mxCell>
        <mxCell id="u-G2C7BFLlz_er3tTFiu-41" style="edgeStyle=orthogonalEdgeStyle;rounded=0;orthogonalLoop=1;jettySize=auto;html=1;exitX=0.5;exitY=1;exitDx=0;exitDy=0;entryX=0.5;entryY=0;entryDx=0;entryDy=0;" parent="1" source="u-G2C7BFLlz_er3tTFiu-8" target="u-G2C7BFLlz_er3tTFiu-35" edge="1">
          <mxGeometry relative="1" as="geometry" />
        </mxCell>
        <mxCell id="u-G2C7BFLlz_er3tTFiu-8" value="保障范围" style="rounded=0;whiteSpace=wrap;html=1;fillColor=#d5e8d4;strokeColor=#82b366;" parent="1" vertex="1">
          <mxGeometry x="760" y="600" width="30" height="60" as="geometry" />
        </mxCell>
        <mxCell id="u-G2C7BFLlz_er3tTFiu-44" style="edgeStyle=orthogonalEdgeStyle;rounded=0;orthogonalLoop=1;jettySize=auto;html=1;exitX=0.5;exitY=1;exitDx=0;exitDy=0;entryX=0.5;entryY=0;entryDx=0;entryDy=0;" parent="1" source="u-G2C7BFLlz_er3tTFiu-12" target="u-G2C7BFLlz_er3tTFiu-35" edge="1">
          <mxGeometry relative="1" as="geometry" />
        </mxCell>
        <mxCell id="u-G2C7BFLlz_er3tTFiu-12" value="理赔条件" style="rounded=0;whiteSpace=wrap;html=1;fillColor=#d5e8d4;strokeColor=#82b366;" parent="1" vertex="1">
          <mxGeometry x="880" y="600" width="30" height="60" as="geometry" />
        </mxCell>
        <mxCell id="u-G2C7BFLlz_er3tTFiu-14" value="" style="endArrow=none;dashed=1;html=1;rounded=0;dashPattern=1 4;strokeWidth=5;" parent="1" edge="1">
          <mxGeometry width="50" height="50" relative="1" as="geometry">
            <mxPoint x="470" y="629.5" as="sourcePoint" />
            <mxPoint x="580" y="629.5" as="targetPoint" />
          </mxGeometry>
        </mxCell>
        <mxCell id="u-G2C7BFLlz_er3tTFiu-15" value="" style="endArrow=none;dashed=1;html=1;rounded=0;dashPattern=1 4;strokeWidth=5;" parent="1" edge="1">
          <mxGeometry width="50" height="50" relative="1" as="geometry">
            <mxPoint x="960" y="630" as="sourcePoint" />
            <mxPoint x="1000" y="630" as="targetPoint" />
          </mxGeometry>
        </mxCell>
        <mxCell id="u-G2C7BFLlz_er3tTFiu-17" value="" style="rounded=0;whiteSpace=wrap;html=1;" parent="1" vertex="1">
          <mxGeometry x="790" y="600" width="30" height="60" as="geometry" />
        </mxCell>
        <mxCell id="u-G2C7BFLlz_er3tTFiu-19" value="" style="rounded=0;whiteSpace=wrap;html=1;" parent="1" vertex="1">
          <mxGeometry x="910" y="600" width="30" height="60" as="geometry" />
        </mxCell>
        <mxCell id="u-G2C7BFLlz_er3tTFiu-20" value="&lt;font color=&quot;#330000&quot;&gt;&lt;span style=&quot;font-family: Menlo, Monaco, &amp;quot;Courier New&amp;quot;, monospace; white-space: pre; background-color: rgb(255, 255, 255);&quot;&gt;60种轻症有哪些&lt;/span&gt;？&lt;/font&gt;" style="text;html=1;align=center;verticalAlign=middle;whiteSpace=wrap;rounded=0;" parent="1" vertex="1">
          <mxGeometry x="170" y="520" width="170" height="30" as="geometry" />
        </mxCell>
        <mxCell id="u-G2C7BFLlz_er3tTFiu-21" value="BERT" style="rounded=1;whiteSpace=wrap;html=1;" parent="1" vertex="1">
          <mxGeometry x="170" y="550" width="170" height="30" as="geometry" />
        </mxCell>
        <mxCell id="u-G2C7BFLlz_er3tTFiu-36" style="edgeStyle=orthogonalEdgeStyle;rounded=0;orthogonalLoop=1;jettySize=auto;html=1;exitX=0.5;exitY=1;exitDx=0;exitDy=0;entryX=0.5;entryY=0;entryDx=0;entryDy=0;" parent="1" source="u-G2C7BFLlz_er3tTFiu-25" target="u-G2C7BFLlz_er3tTFiu-35" edge="1">
          <mxGeometry relative="1" as="geometry" />
        </mxCell>
        <mxCell id="u-G2C7BFLlz_er3tTFiu-25" value="CLS" style="rounded=0;whiteSpace=wrap;html=1;fillColor=#f8cecc;strokeColor=#b85450;" parent="1" vertex="1">
          <mxGeometry x="170" y="600" width="30" height="60" as="geometry" />
        </mxCell>
        <mxCell id="u-G2C7BFLlz_er3tTFiu-26" value="" style="rounded=0;whiteSpace=wrap;html=1;" parent="1" vertex="1">
          <mxGeometry x="200" y="600" width="30" height="60" as="geometry" />
        </mxCell>
        <mxCell id="u-G2C7BFLlz_er3tTFiu-46" value="" style="edgeStyle=orthogonalEdgeStyle;rounded=0;orthogonalLoop=1;jettySize=auto;html=1;" parent="1" source="u-G2C7BFLlz_er3tTFiu-35" target="u-G2C7BFLlz_er3tTFiu-45" edge="1">
          <mxGeometry relative="1" as="geometry" />
        </mxCell>
        <mxCell id="u-G2C7BFLlz_er3tTFiu-35" value="Pooling" style="rounded=0;whiteSpace=wrap;html=1;" parent="1" vertex="1">
          <mxGeometry x="490" y="720" width="120" height="40" as="geometry" />
        </mxCell>
        <mxCell id="u-G2C7BFLlz_er3tTFiu-45" value="MLP" style="rounded=1;whiteSpace=wrap;html=1;" parent="1" vertex="1">
          <mxGeometry x="490" y="790" width="120" height="40" as="geometry" />
        </mxCell>
        <mxCell id="PAfy0EfF9vHyodRYPN-5-2" value="" style="rounded=0;whiteSpace=wrap;html=1;" vertex="1" parent="1">
          <mxGeometry x="310" y="600" width="30" height="60" as="geometry" />
        </mxCell>
        <mxCell id="PAfy0EfF9vHyodRYPN-5-3" value="" style="endArrow=none;dashed=1;html=1;rounded=0;dashPattern=1 4;strokeWidth=5;" edge="1" parent="1">
          <mxGeometry width="50" height="50" relative="1" as="geometry">
            <mxPoint x="240" y="629.5" as="sourcePoint" />
            <mxPoint x="300" y="629.5" as="targetPoint" />
          </mxGeometry>
        </mxCell>
        <mxCell id="PAfy0EfF9vHyodRYPN-5-4" value="" style="rounded=0;whiteSpace=wrap;html=1;" vertex="1" parent="1">
          <mxGeometry x="600" y="600" width="30" height="60" as="geometry" />
        </mxCell>
        <mxCell id="PAfy0EfF9vHyodRYPN-5-5" value="" style="rounded=0;whiteSpace=wrap;html=1;" vertex="1" parent="1">
          <mxGeometry x="630" y="600" width="30" height="60" as="geometry" />
        </mxCell>
        <mxCell id="PAfy0EfF9vHyodRYPN-5-6" value="" style="endArrow=none;dashed=1;html=1;rounded=0;dashPattern=1 4;strokeWidth=5;" edge="1" parent="1">
          <mxGeometry width="50" height="50" relative="1" as="geometry">
            <mxPoint x="680" y="629.5" as="sourcePoint" />
            <mxPoint x="750" y="630" as="targetPoint" />
          </mxGeometry>
        </mxCell>
        <mxCell id="PAfy0EfF9vHyodRYPN-5-7" value="" style="endArrow=none;dashed=1;html=1;rounded=0;dashPattern=1 4;strokeWidth=5;" edge="1" parent="1">
          <mxGeometry width="50" height="50" relative="1" as="geometry">
            <mxPoint x="830" y="629.5" as="sourcePoint" />
            <mxPoint x="870" y="630" as="targetPoint" />
          </mxGeometry>
        </mxCell>
      </root>
    </mxGraphModel>
  </diagram>
</mxfile>
